<mxfile host="app.diagrams.net" modified="2024-04-19T07:33:15.432Z" agent="Mozilla/5.0 (Windows NT 10.0; Win64; x64) AppleWebKit/537.36 (KHTML, like Gecko) Chrome/123.0.0.0 Safari/537.36" version="22.1.21" etag="Bes4VPjXfxB6kxn_qVCD" type="github">
  <diagram name="Страница — 1" id="JXGnWFy1PrDAFHaWlhB1">
    <mxGraphModel>
      <root>
        <mxCell id="0" />
        <mxCell id="1" parent="0" />
      </root>
    </mxGraphModel>
  </diagram>
</mxfile>
